<svg width="44" height="44" viewBox="0 0 44 44" fill="none" xmlns="http://www.w3.org/2000/svg">
<path d="M32.5 20.6383V30.75C32.5 31.2141 32.3156 31.6592 31.9874 31.9874C31.6592 32.3156 31.2141 32.5 30.75 32.5H26.375C25.9109 32.5 25.4658 32.3156 25.1376 31.9874C24.8094 31.6592 24.625 31.2141 24.625 30.75V26.375C24.625 26.1429 24.5328 25.9203 24.3687 25.7563C24.2046 25.5922 23.9821 25.5 23.75 25.5H20.25C20.0179 25.5 19.7954 25.5922 19.6313 25.7563C19.4672 25.9203 19.375 26.1429 19.375 26.375V30.75C19.375 31.2141 19.1906 31.6592 18.8624 31.9874C18.5342 32.3156 18.0891 32.5 17.625 32.5H13.25C12.7859 32.5 12.3408 32.3156 12.0126 31.9874C11.6844 31.6592 11.5 31.2141 11.5 30.75V20.6383C11.5 20.3961 11.5502 20.1565 11.6475 19.9347C11.7449 19.7129 11.8872 19.5138 12.0655 19.3498L20.8155 11.0942L20.8275 11.0822C21.1497 10.7892 21.5695 10.6268 22.0049 10.6268C22.4404 10.6268 22.8602 10.7892 23.1823 11.0822C23.1861 11.0864 23.1901 11.0905 23.1944 11.0942L31.9444 19.3498C32.1209 19.5146 32.2614 19.7142 32.357 19.9359C32.4526 20.1576 32.5013 20.3968 32.5 20.6383Z" fill="black"/>
</svg>
