<svg width="44" height="44" viewBox="0 0 44 44" fill="none" xmlns="http://www.w3.org/2000/svg">
<path opacity="0.08" d="M30.7346 21.4729L32.5699 19.176C32.3224 18.2454 31.952 17.352 31.4685 16.5193L28.5482 16.1911C28.3149 15.9283 28.0662 15.6796 27.8034 15.4463L27.4753 12.5249C26.6416 12.0443 25.7479 11.6765 24.8174 11.4311L22.5206 13.2654C22.1694 13.2446 21.8173 13.2446 21.4662 13.2654L19.1693 11.4301C18.2418 11.6783 17.3513 12.0487 16.5213 12.5315L16.1932 15.4518C15.9304 15.6851 15.6817 15.9338 15.4484 16.1966L12.527 16.5247C12.0464 17.3584 11.6786 18.2521 11.4332 19.1826L13.2674 21.4794C13.2467 21.8306 13.2467 22.1827 13.2674 22.5338L11.4321 24.8307C11.6797 25.7612 12.0501 26.6547 12.5335 27.4874L15.4538 27.8155C15.6871 28.0784 15.9359 28.3271 16.1987 28.5604L16.5268 31.4818C17.3605 31.9623 18.2542 32.3301 19.1846 32.5755L21.4815 30.7413C21.8327 30.7621 22.1847 30.7621 22.5359 30.7413L24.8328 32.5766C25.7633 32.3291 26.6567 31.9587 27.4895 31.4752L27.8176 28.5549C28.0804 28.3216 28.3292 28.0729 28.5624 27.8101L31.4838 27.4819C31.9644 26.6483 32.3322 25.7545 32.5776 24.8241L30.7434 22.5272C30.7612 22.1759 30.7583 21.8238 30.7346 21.4729ZM21.9999 26.3751C21.1346 26.3751 20.2888 26.1185 19.5693 25.6377C18.8499 25.157 18.2891 24.4737 17.958 23.6743C17.6268 22.8749 17.5402 21.9952 17.709 21.1465C17.8778 20.2979 18.2945 19.5183 18.9063 18.9065C19.5182 18.2946 20.2978 17.8779 21.1464 17.7091C21.9951 17.5403 22.8748 17.6269 23.6742 17.9581C24.4736 18.2892 25.1569 18.85 25.6376 19.5694C26.1184 20.2889 26.3749 21.1348 26.3749 22.0001C26.3749 23.1604 25.914 24.2732 25.0935 25.0936C24.2731 25.9141 23.1603 26.3751 21.9999 26.3751Z" fill="black"/>
<path d="M21.9998 16.7501C20.9615 16.7501 19.9464 17.058 19.0831 17.6348C18.2197 18.2117 17.5468 19.0316 17.1494 19.991C16.7521 20.9503 16.6481 22.0059 16.8507 23.0243C17.0533 24.0427 17.5533 24.9781 18.2875 25.7124C19.0217 26.4466 19.9572 26.9466 20.9756 27.1492C21.994 27.3517 23.0496 27.2478 24.0089 26.8504C24.9682 26.4531 25.7881 25.7802 26.365 24.9168C26.9419 24.0534 27.2498 23.0384 27.2498 22C27.2484 20.6081 26.6948 19.2736 25.7105 18.2893C24.7263 17.3051 23.3917 16.7515 21.9998 16.7501ZM21.9998 25.5C21.3076 25.5 20.6309 25.2948 20.0553 24.9102C19.4797 24.5256 19.0311 23.979 18.7662 23.3394C18.5013 22.6999 18.432 21.9962 18.5671 21.3172C18.7021 20.6383 19.0354 20.0147 19.5249 19.5252C20.0144 19.0357 20.6381 18.7023 21.317 18.5673C21.9959 18.4323 22.6997 18.5016 23.3392 18.7665C23.9787 19.0314 24.5254 19.48 24.9099 20.0556C25.2945 20.6311 25.4998 21.3078 25.4998 22C25.4998 22.9283 25.1311 23.8185 24.4747 24.4749C23.8183 25.1313 22.9281 25.5 21.9998 25.5ZM31.6248 22.2363C31.6292 22.0788 31.6292 21.9213 31.6248 21.7638L33.2567 19.725C33.3422 19.618 33.4015 19.4924 33.4296 19.3582C33.4577 19.2241 33.4539 19.0853 33.4186 18.9529C33.1506 17.9474 32.7504 16.982 32.2286 16.0818C32.1602 15.964 32.0652 15.8638 31.9513 15.7892C31.8374 15.7146 31.7076 15.6676 31.5723 15.6519L28.9779 15.3632C28.87 15.2494 28.7606 15.14 28.6498 15.035L28.3436 12.4341C28.3278 12.2987 28.2806 12.1689 28.2058 12.0549C28.131 11.941 28.0306 11.8461 27.9126 11.7779C27.0125 11.2564 26.047 10.857 25.0415 10.59C24.9091 10.5547 24.7703 10.5509 24.6362 10.579C24.502 10.6071 24.3764 10.6664 24.2693 10.7519L22.2361 12.375C22.0786 12.375 21.9211 12.375 21.7636 12.375L19.7248 10.7465C19.6178 10.6609 19.4921 10.6017 19.358 10.5735C19.2239 10.5454 19.085 10.5492 18.9526 10.5846C17.9472 10.8526 16.9817 11.2527 16.0815 11.7746C15.9637 11.843 15.8636 11.9379 15.7889 12.0518C15.7143 12.1658 15.6673 12.2955 15.6517 12.4308L15.3629 15.0296C15.2492 15.1382 15.1398 15.2476 15.0348 15.3577L12.4339 15.6563C12.2985 15.6721 12.1686 15.7192 12.0547 15.794C11.9408 15.8689 11.8459 15.9693 11.7776 16.0872C11.2563 16.9876 10.8565 17.953 10.5887 18.9583C10.5535 19.0908 10.5499 19.2297 10.5782 19.3638C10.6065 19.498 10.6659 19.6236 10.7517 19.7305L12.3748 21.7638C12.3748 21.9213 12.3748 22.0788 12.3748 22.2363L10.7462 24.2751C10.6606 24.3821 10.6014 24.5077 10.5733 24.6419C10.5452 24.776 10.549 24.9148 10.5843 25.0472C10.8523 26.0527 11.2525 27.0181 11.7743 27.9183C11.8427 28.0361 11.9377 28.1363 12.0516 28.2109C12.1655 28.2855 12.2953 28.3325 12.4306 28.3482L15.025 28.6369C15.1336 28.7507 15.243 28.8601 15.3531 28.965L15.6561 31.566C15.6718 31.7014 15.719 31.8312 15.7938 31.9452C15.8686 32.0591 15.969 32.154 16.087 32.2222C16.9873 32.7436 17.9528 33.1434 18.9581 33.4111C19.0906 33.4464 19.2295 33.45 19.3636 33.4217C19.4977 33.3934 19.6233 33.3339 19.7303 33.2482L21.7636 31.625C21.9211 31.6294 22.0786 31.6294 22.2361 31.625L24.2748 33.2569C24.3819 33.3425 24.5075 33.4017 24.6416 33.4298C24.7757 33.458 24.9146 33.4542 25.047 33.4188C26.0526 33.1513 27.0181 32.7511 27.9181 32.2288C28.0359 32.1604 28.1361 32.0655 28.2107 31.9515C28.2853 31.8376 28.3323 31.7078 28.3479 31.5725L28.6367 28.9782C28.7504 28.8703 28.8598 28.7609 28.9648 28.6501L31.5657 28.3438C31.7011 28.328 31.831 28.2809 31.9449 28.2061C32.0588 28.1312 32.1537 28.0308 32.222 27.9129C32.7433 27.0125 33.1431 26.0471 33.4109 25.0418C33.4461 24.9093 33.4497 24.7704 33.4214 24.6363C33.3931 24.5021 33.3337 24.3765 33.2479 24.2696L31.6248 22.2363ZM29.8639 21.5254C29.8825 21.8415 29.8825 22.1586 29.8639 22.4747C29.8508 22.6912 29.9187 22.9048 30.0542 23.0741L31.6062 25.0133C31.4281 25.5793 31.2001 26.1283 30.9248 26.654L28.4529 26.934C28.2377 26.9579 28.0389 27.0607 27.8951 27.2227C27.6846 27.4595 27.4603 27.6837 27.2236 27.8943C27.0616 28.0381 26.9587 28.2368 26.9348 28.4521L26.6603 30.9218C26.1347 31.1972 25.5857 31.4252 25.0196 31.6032L23.0793 30.0511C22.9241 29.9271 22.7312 29.8596 22.5325 29.8597H22.48C22.1638 29.8783 21.8468 29.8783 21.5306 29.8597C21.3142 29.8473 21.1008 29.9151 20.9312 30.0501L18.9865 31.6032C18.4205 31.4251 17.8715 31.1971 17.3459 30.9218L17.0659 28.4532C17.042 28.2379 16.9391 28.0392 16.7771 27.8954C16.5404 27.6848 16.3161 27.4606 16.1056 27.2238C15.9618 27.0618 15.763 26.9589 15.5478 26.935L13.0781 26.6594C12.8027 26.1339 12.5746 25.5848 12.3967 25.0188L13.9487 23.0785C14.0842 22.9092 14.1521 22.6956 14.139 22.4791C14.1204 22.1629 14.1204 21.8459 14.139 21.5297C14.1521 21.3133 14.0842 21.0997 13.9487 20.9304L12.3967 18.9868C12.5748 18.4208 12.8028 17.8718 13.0781 17.3461L15.5467 17.0661C15.7619 17.0422 15.9607 16.9394 16.1045 16.7774C16.315 16.5406 16.5393 16.3164 16.7761 16.1058C16.9387 15.9619 17.042 15.7627 17.0659 15.5469L17.3404 13.0783C17.866 12.8029 18.415 12.5749 18.9811 12.3969L20.9214 13.949C21.0907 14.0845 21.3043 14.1523 21.5207 14.1393C21.8369 14.1207 22.1539 14.1207 22.4701 14.1393C22.6865 14.1517 22.8999 14.0839 23.0695 13.949L25.0131 12.3969C25.5791 12.575 26.1281 12.803 26.6537 13.0783L26.9337 15.5469C26.9576 15.7622 27.0605 15.9609 27.2225 16.1047C27.4592 16.3153 27.6835 16.5395 27.894 16.7763C28.0378 16.9383 28.2366 17.0412 28.4518 17.065L30.9215 17.3396C31.1969 17.8651 31.425 18.4142 31.6029 18.9802L30.0509 20.9205C29.9141 21.0912 29.8462 21.307 29.8606 21.5254H29.8639Z" fill="black"/>
</svg>
