<svg width="24" height="24" viewBox="0 0 24 24" fill="none" xmlns="http://www.w3.org/2000/svg">
<path d="M9.37489 10.9153C9.48893 10.8495 9.58363 10.7548 9.64945 10.6407C9.71528 10.5267 9.74992 10.3973 9.74989 10.2656V3.51563C9.74922 3.39605 9.71997 3.27837 9.66458 3.1724C9.60919 3.06643 9.52926 2.97523 9.43147 2.90643C9.33367 2.83762 9.22084 2.7932 9.10239 2.77686C8.98393 2.76052 8.86329 2.77274 8.75052 2.8125C6.56143 3.58726 4.7205 5.11748 3.55866 7.12807C2.39681 9.13865 1.99026 11.4977 2.41208 13.7813C2.43395 13.8993 2.48385 14.0104 2.55759 14.1052C2.63133 14.2 2.72675 14.2757 2.83583 14.3259C2.93413 14.3719 3.04137 14.3956 3.14989 14.3953C3.28153 14.3954 3.41086 14.3608 3.52489 14.295L9.37489 10.9153ZM8.24989 4.65188V9.8325L3.76114 12.4228C3.74989 12.2812 3.74989 12.1388 3.74989 12C3.75122 10.4797 4.17204 8.98928 4.96601 7.69279C5.75998 6.3963 6.89631 5.34404 8.24989 4.65188ZM21.7499 12C21.7506 14.1404 21.047 16.2216 19.7476 17.9225C18.4481 19.6234 16.6251 20.8493 14.5598 21.4113C12.4944 21.9733 10.3016 21.84 8.31948 21.0321C6.3374 20.2241 4.67627 18.7863 3.59239 16.9406C3.54187 16.8554 3.50874 16.761 3.49492 16.6628C3.4811 16.5647 3.48687 16.4648 3.51188 16.3689C3.5369 16.273 3.58068 16.183 3.64068 16.1041C3.70068 16.0253 3.77572 15.9591 3.86146 15.9094L11.2499 11.6091V3C11.2499 2.80109 11.3289 2.61032 11.4696 2.46967C11.6102 2.32902 11.801 2.25 11.9999 2.25C13.7013 2.25087 15.373 2.69675 16.8488 3.54338C18.3247 4.39001 19.5534 5.60794 20.413 7.07625C20.4233 7.09125 20.4327 7.10625 20.4421 7.12219C20.4515 7.13813 20.4608 7.15688 20.4693 7.17375C21.3105 8.64297 21.752 10.307 21.7499 12Z" fill="black"/>
</svg>
