<svg width="24" height="24" viewBox="0 0 24 24" fill="none" xmlns="http://www.w3.org/2000/svg">
<path opacity="0.08" d="M15.75 13.5C15.75 14.2417 15.5301 14.9667 15.118 15.5834C14.706 16.2001 14.1203 16.6807 13.4351 16.9645C12.7498 17.2484 11.9958 17.3226 11.2684 17.1779C10.541 17.0333 9.8728 16.6761 9.34835 16.1517C8.8239 15.6272 8.46675 14.959 8.32206 14.2316C8.17736 13.5042 8.25162 12.7502 8.53545 12.0649C8.81928 11.3797 9.29993 10.794 9.91661 10.382C10.5333 9.96993 11.2583 9.75 12 9.75C12.9946 9.75 13.9484 10.1451 14.6517 10.8483C15.3549 11.5516 15.75 12.5054 15.75 13.5ZM6 5.25C5.40666 5.25 4.82664 5.42595 4.33329 5.75559C3.83994 6.08524 3.45543 6.55377 3.22836 7.10195C3.0013 7.65013 2.94189 8.25333 3.05765 8.83527C3.1734 9.41721 3.45912 9.95176 3.87868 10.3713C4.29824 10.7909 4.83279 11.0766 5.41473 11.1924C5.99667 11.3081 6.59987 11.2487 7.14805 11.0216C7.69623 10.7946 8.16477 10.4101 8.49441 9.91671C8.82405 9.42336 9 8.84334 9 8.25C9 7.45435 8.68393 6.69129 8.12132 6.12868C7.55871 5.56607 6.79565 5.25 6 5.25ZM18 5.25C17.4067 5.25 16.8266 5.42595 16.3333 5.75559C15.8399 6.08524 15.4554 6.55377 15.2284 7.10195C15.0013 7.65013 14.9419 8.25333 15.0576 8.83527C15.1734 9.41721 15.4591 9.95176 15.8787 10.3713C16.2982 10.7909 16.8328 11.0766 17.4147 11.1924C17.9967 11.3081 18.5999 11.2487 19.1481 11.0216C19.6962 10.7946 20.1648 10.4101 20.4944 9.91671C20.8241 9.42336 21 8.84334 21 8.25C21 7.45435 20.6839 6.69129 20.1213 6.12868C19.5587 5.56607 18.7957 5.25 18 5.25Z" fill="black"/>
<path d="M22.95 14.1C22.8712 14.1591 22.7816 14.2021 22.6862 14.2265C22.5908 14.251 22.4915 14.2564 22.394 14.2425C22.2965 14.2285 22.2027 14.1955 22.1179 14.1454C22.0332 14.0952 21.9591 14.0288 21.9 13.95C21.448 13.3424 20.8596 12.8494 20.1822 12.5107C19.5048 12.172 18.7574 11.9971 18 12C17.8011 12 17.6104 11.921 17.4697 11.7803C17.3291 11.6397 17.25 11.4489 17.25 11.25C17.25 11.0511 17.3291 10.8603 17.4697 10.7197C17.6104 10.579 17.8011 10.5 18 10.5C18.4209 10.5 18.8332 10.3819 19.1903 10.1593C19.5474 9.93662 19.8349 9.61828 20.0201 9.24043C20.2054 8.86257 20.2809 8.44034 20.2382 8.0217C20.1955 7.60305 20.0363 7.20477 19.7786 6.8721C19.5209 6.53942 19.175 6.28569 18.7803 6.13972C18.3856 5.99374 17.9579 5.96138 17.5458 6.04631C17.1336 6.13124 16.7535 6.33005 16.4487 6.62016C16.1439 6.91027 15.9265 7.28006 15.8213 7.68751C15.7967 7.78293 15.7535 7.87256 15.6942 7.95128C15.635 8.03001 15.5608 8.0963 15.4759 8.14635C15.391 8.19641 15.2971 8.22926 15.1995 8.24302C15.102 8.25679 15.0026 8.2512 14.9072 8.22658C14.8118 8.20195 14.7222 8.15878 14.6435 8.09952C14.5647 8.04026 14.4984 7.96607 14.4484 7.88119C14.3983 7.79631 14.3655 7.7024 14.3517 7.60483C14.338 7.50726 14.3435 7.40793 14.3682 7.31251C14.5142 6.7475 14.7901 6.22436 15.1738 5.78472C15.5576 5.34508 16.0387 5.00108 16.5788 4.78009C17.119 4.5591 17.7032 4.46722 18.2851 4.51176C18.867 4.5563 19.4304 4.73603 19.9306 5.03665C20.4308 5.33727 20.8539 5.75048 21.1663 6.24341C21.4787 6.73633 21.6718 7.29536 21.7301 7.87602C21.7884 8.45668 21.7104 9.04294 21.5023 9.58815C21.2942 10.1334 20.9617 10.6225 20.5313 11.0166C21.5511 11.4581 22.4377 12.1588 23.1028 13.0491C23.1619 13.1281 23.2049 13.2179 23.2292 13.3136C23.2535 13.4092 23.2587 13.5086 23.2445 13.6062C23.2303 13.7039 23.197 13.7977 23.1465 13.8825C23.0959 13.9672 23.0292 14.0411 22.95 14.1ZM17.8988 19.875C17.9511 19.9604 17.9859 20.0554 18.0009 20.1544C18.016 20.2534 18.011 20.3544 17.9864 20.4515C17.9618 20.5486 17.918 20.6398 17.8575 20.7196C17.7971 20.7995 17.7213 20.8665 17.6346 20.9166C17.5479 20.9667 17.452 20.9989 17.3526 21.0113C17.2532 21.0237 17.1524 21.0162 17.056 20.989C16.9596 20.9618 16.8696 20.9156 16.7913 20.8531C16.7131 20.7906 16.6481 20.713 16.6004 20.625C16.1278 19.8252 15.455 19.1624 14.6482 18.702C13.8414 18.2416 12.9285 17.9994 11.9996 17.9994C11.0706 17.9994 10.1577 18.2416 9.35095 18.702C8.54415 19.1624 7.87131 19.8252 7.39879 20.625C7.3519 20.7146 7.28737 20.7939 7.20908 20.8579C7.13078 20.9219 7.04034 20.9695 6.94319 20.9977C6.84605 21.0259 6.7442 21.0341 6.64379 21.0219C6.54338 21.0097 6.44647 20.9773 6.35889 20.9267C6.27132 20.8761 6.19489 20.8083 6.1342 20.7273C6.07352 20.6464 6.02983 20.5541 6.00576 20.4558C5.9817 20.3576 5.97775 20.2555 5.99417 20.1556C6.01059 20.0558 6.04702 19.9604 6.10129 19.875C6.82841 18.6257 7.9371 17.6425 9.26441 17.07C8.51753 16.4982 7.96863 15.7067 7.69485 14.8067C7.42108 13.9068 7.4362 12.9437 7.73808 12.0528C8.03997 11.1619 8.61346 10.388 9.37792 9.8399C10.1424 9.29178 11.0594 8.99701 12 8.99701C12.9407 8.99701 13.8577 9.29178 14.6222 9.8399C15.3866 10.388 15.9601 11.1619 16.262 12.0528C16.5639 12.9437 16.579 13.9068 16.3052 14.8067C16.0315 15.7067 15.4825 16.4982 14.7357 17.07C16.063 17.6425 17.1717 18.6257 17.8988 19.875ZM12 16.5C12.5934 16.5 13.1734 16.3241 13.6667 15.9944C14.1601 15.6648 14.5446 15.1962 14.7717 14.6481C14.9987 14.0999 15.0582 13.4967 14.9424 12.9147C14.8266 12.3328 14.5409 11.7983 14.1214 11.3787C13.7018 10.9591 13.1673 10.6734 12.5853 10.5577C12.0034 10.4419 11.4002 10.5013 10.852 10.7284C10.3038 10.9554 9.83528 11.34 9.50563 11.8333C9.17599 12.3267 9.00004 12.9067 9.00004 13.5C9.00004 14.2957 9.31611 15.0587 9.87872 15.6213C10.4413 16.1839 11.2044 16.5 12 16.5ZM6.75004 11.25C6.75004 11.0511 6.67102 10.8603 6.53037 10.7197C6.38972 10.579 6.19895 10.5 6.00004 10.5C5.57922 10.5 5.16685 10.3819 4.80976 10.1593C4.45267 9.93662 4.16518 9.61828 3.97994 9.24043C3.79471 8.86257 3.71915 8.44034 3.76185 8.0217C3.80455 7.60305 3.9638 7.20477 4.22152 6.8721C4.47923 6.53942 4.82507 6.28569 5.21976 6.13972C5.61445 5.99374 6.04216 5.96138 6.45432 6.04631C6.86648 6.13124 7.24656 6.33005 7.55139 6.62016C7.85622 6.91027 8.07359 7.28006 8.17879 7.68751C8.22852 7.88021 8.35276 8.04526 8.52418 8.14635C8.6956 8.24745 8.90016 8.2763 9.09285 8.22658C9.28555 8.17685 9.4506 8.05261 9.55169 7.88119C9.65279 7.70977 9.68164 7.50521 9.63192 7.31251C9.48589 6.7475 9.21002 6.22436 8.82624 5.78472C8.44246 5.34508 7.96137 5.00108 7.42125 4.78009C6.88112 4.5591 6.29688 4.46722 5.715 4.51176C5.13312 4.5563 4.56967 4.73603 4.06947 5.03665C3.56928 5.33727 3.14614 5.75048 2.83375 6.24341C2.52135 6.73633 2.32831 7.29536 2.26998 7.87602C2.21165 8.45668 2.28965 9.04294 2.49777 9.58815C2.70589 10.1334 3.03838 10.6225 3.46879 11.0166C2.44999 11.4586 1.56446 12.1592 0.90004 13.0491C0.780569 13.2082 0.729204 13.4083 0.757247 13.6053C0.785289 13.8023 0.890442 13.9801 1.04957 14.0995C1.2087 14.219 1.40877 14.2704 1.60577 14.2423C1.80278 14.2143 1.98057 14.1091 2.10004 13.95C2.55209 13.3424 3.14049 12.8494 3.81788 12.5107C4.49526 12.172 5.24271 11.9971 6.00004 12C6.19895 12 6.38972 11.921 6.53037 11.7803C6.67102 11.6397 6.75004 11.4489 6.75004 11.25Z" fill="black"/>
</svg>
