<svg width="40" height="28" viewBox="0 0 40 28" fill="none" xmlns="http://www.w3.org/2000/svg">
<path d="M0 14C0 6.26801 6.26801 0 14 0H26C33.732 0 40 6.26801 40 14C40 21.732 33.732 28 26 28H14C6.26801 28 0 21.732 0 14Z" fill="white" fill-opacity="0.2"/>
<path fill-rule="evenodd" clip-rule="evenodd" d="M29.5194 7.45896C29.8182 7.74582 29.8279 8.22059 29.541 8.5194L24.501 13.7694C24.3596 13.9167 24.1642 14 23.96 14C23.7558 14 23.5604 13.9167 23.419 13.7694L20.36 10.583L16.735 14.359L19.3177 16.8383L11 19.25L13.0703 10.8408L15.6529 13.3202L19.819 8.9806C19.9604 8.83328 20.1558 8.75 20.36 8.75C20.5642 8.75 20.7596 8.83328 20.901 8.9806L23.96 12.167L28.459 7.4806C28.7458 7.18179 29.2206 7.1721 29.5194 7.45896Z" fill="white"/>
</svg>
