<svg width="40" height="28" viewBox="0 0 40 28" fill="none" xmlns="http://www.w3.org/2000/svg">
<path d="M0 14C0 6.26801 6.26801 0 14 0H26C33.732 0 40 6.26801 40 14C40 21.732 33.732 28 26 28H14C6.26801 28 0 21.732 0 14Z" fill="white" fill-opacity="0.2"/>
<path fill-rule="evenodd" clip-rule="evenodd" d="M20.6823 10.4117L29 8L26.9297 16.4092L24.3471 13.9298L20.181 18.2694C20.0396 18.4167 19.8442 18.5 19.64 18.5C19.4358 18.5 19.2404 18.4167 19.099 18.2694L16.04 15.083L11.541 19.7694C11.2542 20.0682 10.7794 20.0779 10.4806 19.791C10.1818 19.5042 10.1721 19.0294 10.459 18.7306L15.499 13.4806C15.6404 13.3333 15.8358 13.25 16.04 13.25C16.2442 13.25 16.4396 13.3333 16.581 13.4806L19.64 16.667L23.265 12.891L20.6823 10.4117Z" fill="white"/>
</svg>
